<?xml version="1.0" encoding="utf-8"?>
<?xml-stylesheet type="text/xsl" href="rss1.xsl"?>
<rss version="2.0" xmlns:atom="http://www.w3.org/2005/Atom" xmlns:content="http://purl.org/rss/1.0/modules/content/" xmlns:dc="http://purl.org/dc/elements/1.1/" xmlns:media="http://search.yahoo.com/mrss/">
<channel>
 <title>Getty</title>
 <link>http://www.gettyimg.com/</link>
 <atom:link href="http://www.gettyimg.com/" rel="self" type="application/rss+xml" />

 
                <item>
                <title><![CDATA[【Singles (lossless)】ALAC - ST12 - Cinta Tak Harus Memiliki [ALAC, 16bit/44.1kHz, 1.4Mbps]]]></title>
                <link><![CDATA[https://sharemania.us/threads/st12-cinta-tak-harus-memiliki-alac-16bit-44-1khz-1-4mbps.248951/]]></link>
                <description><![CDATA[<article>
<blockquote class="messageText SelectQuoteContainer ugc baseHtml">
<img src="https://encrypted-tbn0.gstatic.com/images?q=tbn:ANd9GcR32Q60xMVvxZx6erew1AQafxgEivkAniB5eWN9PqU1yRJkSQoSzBzC-LQ&amp;s=10" class="bbCodeImage LbImage" alt="[​IMG]" data-url="https://encrypted-tbn0.gstatic.com/images?q=tbn:ANd9GcR32Q60xMVvxZx6erew1AQafxgEivkAniB5eWN9PqU1yRJkSQoSzBzC-LQ&amp;s=10" style=""><br>
<br>
<br>
<b>Artist: ST12<br>
Album: Cinta Tak Harus Memiliki - Single<br>
Format: Apple Lossless Audio Codec w/ Core Media Audio<br>
.m4a [ALAC, 16bit/44.1kHz, 1.4Mbps]</b><br>
<br>
<br>
PASSWORD ZIP: sharemania<br>
link<br>
<div class="bbCodeBlock bbCodeVfcHH HiddenContent">
<div class="attribution type">Hidden Content:</div>
<blockquote>You must either reply or click 'Like' to see the hidden information contained here.</blockquote>
</div>
<div class="messageTextEndMarker">&nbsp;</div>
</blockquote>
</article>]]></description>
                <author><![CDATA[andammm777]]></author>
                </item>

                
                <item>
                <title><![CDATA[【Apple Music】WEB-RiP - HUTS, LUNAX &amp; Jerome - Million Years (Jerome Edit) (1080p)]]></title>
                <link><![CDATA[https://sharemania.us/threads/huts-lunax-jerome-million-years-jerome-edit-1080p.248954/]]></link>
                <description><![CDATA[<article>
<blockquote class="messageText SelectQuoteContainer ugc baseHtml">
<img src="https://i.postimg.cc/PJGKnxrF/HUTS-LUNAX-Jerome-Million-Years-Jerome-Edit-mp4.jpg" class="bbCodeImage LbImage" alt="[​IMG]" data-url="https://i.postimg.cc/PJGKnxrF/HUTS-LUNAX-Jerome-Million-Years-Jerome-Edit-mp4.jpg" style=""><br>
<br>
<div class="bbCodeBlock bbCodeCode">
<div class="type">Code:</div>
<pre>General
Complete name                  : G:\Новая папка\HUTS, LUNAX &amp; Jerome - Million Years (Jerome Edit).mp4
Format                         : MPEG-4
Format profile                 : Base Media
Codec ID                       : isom (isom/iso2/avc1/mp41)
File size                      : 197 MiB
Duration                       : 2 min 45 s
Overall bit rate               : 9 978 kb/s
Frame rate                     : 25.000 FPS
Movie name                     : Million Years (Jerome Edit)
Performer                      : HUTS, LUNAX &amp; Jerome
Genre                          : Dance
ContentType                    : Music Video
Recorded date                  : 2021-02-12 08:00:00 UTC
Writing application            : Lavf56.30.100
Copyright                      : ℗ 2021 Kontor Records GmbH / Beat Dealer Records

Video
ID                             : 1
Format                         : AVC
Format/Info                    : Advanced Video Codec
Format profile                 : High@L4
Format settings                : CABAC / 4 Ref Frames
Format settings, CABAC         : Yes
Format settings, Reference fra : 4 frames
Format settings, Slice count   : 8 slices per frame
Codec ID                       : avc1
Codec ID/Info                  : Advanced Video Coding
Duration                       : 2 min 45 s
Bit rate                       : 9 726 kb/s
Width                          : 1 920 pixels
Height                         : 1 080 pixels
Display aspect ratio           : 16:9
Frame rate mode                : Constant
Frame rate                     : 25.000 FPS
Color space                    : YUV
Chroma subsampling             : 4:2:0
Bit depth                      : 8 bits
Scan type                      : Progressive
Bits/(Pixel*Frame)             : 0.188
Stream size                    : 192 MiB (97%)
Color range                    : Limited
Color primaries                : BT.709
Transfer characteristics       : BT.709
Matrix coefficients            : BT.709
Codec configuration box        : avcC

Audio
ID                             : 2
Format                         : AAC LC
Format/Info                    : Advanced Audio Codec Low Complexity
Codec ID                       : mp4a-40-2
Duration                       : 2 min 45 s
Duration_LastFrame             : -7 ms
Bit rate mode                  : Constant
Bit rate                       : 249 kb/s
Channel(s)                     : 2 channels
Channel layout                 : L R
Sampling rate                  : 48.0 kHz
Frame rate                     : 46.875 FPS (1024 SPF)
Compression mode               : Lossy
Stream size                    : 4.92 MiB (2%)
Default                        : Yes
Alternate group                : 1

</pre>
</div>
<div class="bbCodeBlock bbCodeVfcHH HiddenContent">
<div class="attribution type">Hidden Content:</div>
<blockquote>You must either reply or click 'Like' to see the hidden information contained here.</blockquote>
</div>
<div class="messageTextEndMarker">&nbsp;</div>
</blockquote>
</article>]]></description>
                <author><![CDATA[vitalya3]]></author>
                </item>

                
                <item>
                <title><![CDATA[【Apple Music】WEB-RiP - Margaret - Xanax (1080p)]]></title>
                <link><![CDATA[https://sharemania.us/threads/margaret-xanax-1080p.248956/]]></link>
                <description><![CDATA[<article>
<blockquote class="messageText SelectQuoteContainer ugc baseHtml">
<img src="https://i.postimg.cc/8Cg16M4z/Margaret-Xanax-mp4.jpg" class="bbCodeImage LbImage" alt="[​IMG]" data-url="https://i.postimg.cc/8Cg16M4z/Margaret-Xanax-mp4.jpg" style=""><br>
<br>
<div class="bbCodeBlock bbCodeCode">
<div class="type">Code:</div>
<pre>General
Complete name                  : G:\Новая папка\Margaret - Xanax.mp4
Format                         : MPEG-4
Format profile                 : Base Media
Codec ID                       : isom (isom/iso2/avc1/mp41)
File size                      : 192 MiB
Duration                       : 2 min 38 s
Overall bit rate               : 10.1 Mb/s
Frame rate                     : 25.000 FPS
Movie name                     : Xanax
Performer                      : Margaret
Genre                          : Pop
ContentType                    : Music Video
Recorded date                  : 2020-10-24 07:00:00 UTC
Writing application            : Lavf56.30.100
Copyright                      : ℗ (C) 2020 Sony Music Entertainment Poland Sp. z o. o. na wylacznej licencji Gaja Hornby Records

Video
ID                             : 1
Format                         : AVC
Format/Info                    : Advanced Video Codec
Format profile                 : High@L4
Format settings                : CABAC / 4 Ref Frames
Format settings, CABAC         : Yes
Format settings, Reference fra : 4 frames
Format settings, Slice count   : 8 slices per frame
Codec ID                       : avc1
Codec ID/Info                  : Advanced Video Coding
Duration                       : 2 min 38 s
Bit rate                       : 9 868 kb/s
Width                          : 1 920 pixels
Height                         : 1 080 pixels
Display aspect ratio           : 16:9
Frame rate mode                : Constant
Frame rate                     : 25.000 FPS
Color space                    : YUV
Chroma subsampling             : 4:2:0
Bit depth                      : 8 bits
Scan type                      : Progressive
Bits/(Pixel*Frame)             : 0.190
Stream size                    : 187 MiB (97%)
Color range                    : Limited
Color primaries                : BT.709
Transfer characteristics       : BT.709
Matrix coefficients            : BT.709
Codec configuration box        : avcC

Audio
ID                             : 2
Format                         : AAC LC
Format/Info                    : Advanced Audio Codec Low Complexity
Codec ID                       : mp4a-40-2
Duration                       : 2 min 38 s
Duration_LastFrame             : -7 ms
Bit rate mode                  : Constant
Bit rate                       : 251 kb/s
Channel(s)                     : 2 channels
Channel layout                 : L R
Sampling rate                  : 48.0 kHz
Frame rate                     : 46.875 FPS (1024 SPF)
Compression mode               : Lossy
Stream size                    : 4.76 MiB (2%)
Default                        : Yes
Alternate group                : 1

</pre>
</div>
<div class="bbCodeBlock bbCodeVfcHH HiddenContent">
<div class="attribution type">Hidden Content:</div>
<blockquote>You must either reply or click 'Like' to see the hidden information contained here.</blockquote>
</div>
<div class="messageTextEndMarker">&nbsp;</div>
</blockquote>
</article>]]></description>
                <author><![CDATA[vitalya3]]></author>
                </item>

                
                <item>
                <title><![CDATA[【Singles (lossless)】ALAC - Nidji - Ketika Tuhan Jatuh Cinta [ALAC, 16bit/44.1kHz, 1.4Mbps]]]></title>
                <link><![CDATA[https://sharemania.us/threads/nidji-ketika-tuhan-jatuh-cinta-alac-16bit-44-1khz-1-4mbps.248952/]]></link>
                <description><![CDATA[<article>
<blockquote class="messageText SelectQuoteContainer ugc baseHtml">
<img src="https://is1-ssl.mzstatic.com/image/thumb/Music/v4/ae/19/98/ae1998ed-c3db-bbbc-54c0-fca9e8919a27/Nidji-ketika_tuhan_jatuh_cinta.jpg/1200x1200bb.jpg" class="bbCodeImage LbImage" alt="[​IMG]" data-url="https://is1-ssl.mzstatic.com/image/thumb/Music/v4/ae/19/98/ae1998ed-c3db-bbbc-54c0-fca9e8919a27/Nidji-ketika_tuhan_jatuh_cinta.jpg/1200x1200bb.jpg" style=""><br>
<br>
<br>
<b>Artist: Nidji<br>
Album: Ketika Tuhan Jatuh Cinta - Single<br>
Format: Apple Lossless Audio Codec w/ Core Media Audio<br>
.m4a [ALAC, 16bit/44.1kHz, 1.4Mbps]</b><br>
<br>
<br>
PASSWORD ZIP: sharemania<br>
link<br>
<div class="bbCodeBlock bbCodeVfcHH HiddenContent">
<div class="attribution type">Hidden Content:</div>
<blockquote>You must either reply or click 'Like' to see the hidden information contained here.</blockquote>
</div>
<div class="messageTextEndMarker">&nbsp;</div>
</blockquote>
</article>]]></description>
                <author><![CDATA[andammm777]]></author>
                </item>

                
                <item>
                <title><![CDATA[【Albums (lossless)】ALAC - ST12 - Pangeran Cinta [ALAC, 24bit/44.1kHz, 2.1Mbps]]]></title>
                <link><![CDATA[https://sharemania.us/threads/st12-pangeran-cinta-alac-24bit-44-1khz-2-1mbps.248949/]]></link>
                <description><![CDATA[<article>
<blockquote class="messageText SelectQuoteContainer ugc baseHtml">
<img src="https://is1-ssl.mzstatic.com/image/thumb/Music6/v4/1b/25/94/1b25940d-268c-7e98-fef8-dab55a752a35/8992088505626.jpg/1200x1200bb.jpg" class="bbCodeImage LbImage" alt="[​IMG]" data-url="https://is1-ssl.mzstatic.com/image/thumb/Music6/v4/1b/25/94/1b25940d-268c-7e98-fef8-dab55a752a35/8992088505626.jpg/1200x1200bb.jpg" style=""><br>
<br>
<br>
<b>Artist: ST12<br>
Album: Pangeran Cinta<br>
Format: Apple Lossless Audio Codec w/ Core Media Audio<br>
.m4a [ALAC, 24bit/44.1kHz, 2.1Mbps]</b><br>
<br>
TRACKLIST:<br>
1. Terlalu<br>
2. Setiaku<br>
3. Aku Padamu<br>
4. Dunia Pasti Berputar<br>
5. Pangeran Cinta<br>
6. Masa Kecil<br>
7. Lady Sky<br>
8. Aku Terjatuh<br>
9. Anugerah Cinta<br>
10. I Love You<br>
11. Sayyidina<br>
12. Sebuah Kenyataan<br>
<br>
PASSWORD ZIP: sharemania<br>
link<br>
<div class="bbCodeBlock bbCodeVfcHH HiddenContent">
<div class="attribution type">Hidden Content:</div>
<blockquote>You must either reply or click 'Like' to see the hidden information contained here.</blockquote>
</div>
<div class="messageTextEndMarker">&nbsp;</div>
</blockquote>
</article>]]></description>
                <author><![CDATA[andammm777]]></author>
                </item>

                
                <item>
                <title><![CDATA[【Apple Music】WEB-RiP - Harris &amp; Ford &amp; Jerome - Higher Space (1080p)]]></title>
                <link><![CDATA[https://sharemania.us/threads/harris-ford-jerome-higher-space-1080p.248950/]]></link>
                <description><![CDATA[<article>
<blockquote class="messageText SelectQuoteContainer ugc baseHtml">
<img src="https://i.postimg.cc/k59SxbYc/Harris-Ford-Jerome-Higher-Space-mp4.jpg" class="bbCodeImage LbImage" alt="[​IMG]" data-url="https://i.postimg.cc/k59SxbYc/Harris-Ford-Jerome-Higher-Space-mp4.jpg" style=""><br>
<br>
<div class="bbCodeBlock bbCodeCode">
<div class="type">Code:</div>
<pre>General
Complete name                  : G:\Новая папка\Harris &amp; Ford &amp; Jerome - Higher Space.mp4
Format                         : MPEG-4
Format profile                 : Base Media
Codec ID                       : isom (isom/iso2/avc1/mp41)
File size                      : 144 MiB
Duration                       : 2 min 58 s
Overall bit rate               : 6 769 kb/s
Frame rate                     : 25.000 FPS
Movie name                     : Higher Space
Performer                      : Harris &amp; Ford &amp; Jerome
Genre                          : Dance
ContentType                    : Music Video
Recorded date                  : 2020-12-18 08:00:00 UTC
Writing application            : Lavf56.30.100
Copyright                      : ℗ 2020 Kontor Records GmbH / Heaven Shall Dance

Video
ID                             : 1
Format                         : AVC
Format/Info                    : Advanced Video Codec
Format profile                 : High@L4
Format settings                : CABAC / 5 Ref Frames
Format settings, CABAC         : Yes
Format settings, Reference fra : 5 frames
Format settings, Slice count   : 8 slices per frame
Codec ID                       : avc1
Codec ID/Info                  : Advanced Video Coding
Duration                       : 2 min 58 s
Bit rate                       : 6 512 kb/s
Width                          : 1 920 pixels
Height                         : 818 pixels
Display aspect ratio           : 2.35:1
Frame rate mode                : Constant
Frame rate                     : 25.000 FPS
Color space                    : YUV
Chroma subsampling             : 4:2:0
Bit depth                      : 8 bits
Scan type                      : Progressive
Bits/(Pixel*Frame)             : 0.166
Stream size                    : 139 MiB (96%)
Color range                    : Limited
Color primaries                : BT.709
Transfer characteristics       : BT.709
Matrix coefficients            : BT.709
Codec configuration box        : avcC

Audio
ID                             : 2
Format                         : AAC LC
Format/Info                    : Advanced Audio Codec Low Complexity
Codec ID                       : mp4a-40-2
Duration                       : 2 min 58 s
Duration_LastFrame             : -9 ms
Bit rate mode                  : Constant
Bit rate                       : 252 kb/s
Channel(s)                     : 2 channels
Channel layout                 : L R
Sampling rate                  : 48.0 kHz
Frame rate                     : 46.875 FPS (1024 SPF)
Compression mode               : Lossy
Stream size                    : 5.38 MiB (4%)
Default                        : Yes
Alternate group                : 1

</pre>
</div>
<div class="bbCodeBlock bbCodeVfcHH HiddenContent">
<div class="attribution type">Hidden Content:</div>
<blockquote>You must either reply or click 'Like' to see the hidden information contained here.</blockquote>
</div>
<div class="messageTextEndMarker">&nbsp;</div>
</blockquote>
</article>]]></description>
                <author><![CDATA[vitalya3]]></author>
                </item>

                
                <item>
                <title><![CDATA[【Albums (lossless)】ALAC - Setia Band - Satu Hati [ALAC, 24bit/44.1kHz, 2.1Mbps]]]></title>
                <link><![CDATA[https://sharemania.us/threads/setia-band-satu-hati-alac-24bit-44-1khz-2-1mbps.248953/]]></link>
                <description><![CDATA[<article>
<blockquote class="messageText SelectQuoteContainer ugc baseHtml">
<img src="https://encrypted-tbn0.gstatic.com/images?q=tbn:ANd9GcSc9zEqhzAvHnbdTUzJQgEtbfbPeLchXyY9zyvK4jakgyGLdmjgZAXLITGI&amp;s=10" class="bbCodeImage LbImage" alt="[​IMG]" data-url="https://encrypted-tbn0.gstatic.com/images?q=tbn:ANd9GcSc9zEqhzAvHnbdTUzJQgEtbfbPeLchXyY9zyvK4jakgyGLdmjgZAXLITGI&amp;s=10" style=""><br>
<br>
<br>
<b>Artist: Setia Band<br>
Album: Satu Hati<br>
Format: Apple Lossless Audio Codec w/ Core Media Audio<br>
.m4a [ALAC, 24bit/44.1kHz, 2.1Mbps]</b><br>
<br>
TRACKLIST:<br>
1. Stasiun Cinta<br>
2. Asmara<br>
3. Jangan Ngarep<br>
4. Hatiku Pilu<br>
5. My Love<br>
6. Cerita Hahahihi (feat. All Crew SETIA)<br>
7. Terlalu Indah<br>
8. Broken Heart (feat. Firman)<br>
9. Melamun<br>
10. Jangan Takut Jadi Indonesia<br>
11. Jangan Mau-Mau<br>
12. Aleeyah<br>
<br>
PASSWORD ZIP: sharemania<br>
link<br>
<div class="bbCodeBlock bbCodeVfcHH HiddenContent">
<div class="attribution type">Hidden Content:</div>
<blockquote>You must either reply or click 'Like' to see the hidden information contained here.</blockquote>
</div>
<div class="messageTextEndMarker">&nbsp;</div>
</blockquote>
</article>]]></description>
                <author><![CDATA[andammm777]]></author>
                </item>

                
                <item>
                <title><![CDATA[【Requests】[REQ AUD] - Red Eye - YOMI]]></title>
                <link><![CDATA[https://sharemania.us/threads/red-eye-yomi.248957/]]></link>
                <description><![CDATA[<article>
<blockquote class="messageText SelectQuoteContainer ugc baseHtml">
<a href="https://www.qobuz.com/us-en/album/yomi-red-eye/kbcymxf0hktob" target="_blank" class="externalLink" rel="nofollow">https://www.qobuz.com/us-en/album/yomi-red-eye/kbcymxf0hktob</a><br>
<br>
Share please.
<div class="messageTextEndMarker">&nbsp;</div>
</blockquote>
</article>]]></description>
                <author><![CDATA[Nico Robin]]></author>
                </item>

                </channel></rss>